<?xml version="1.0" encoding="utf-8"?><svg xmlns="http://www.w3.org/2000/svg" xmlns:xlink="http://www.w3.org/1999/xlink"><symbol viewBox="0 0 58 47" id="GOST" xmlns="http://www.w3.org/2000/svg"><path fill-rule="evenodd" clip-rule="evenodd" d="M11.164 36.667a4.803 4.803 0 01-3.4-1.414 4.8 4.8 0 01-1.415-3.401V19.176c0-2.318.94-4.417 2.46-5.935a8.369 8.369 0 015.935-2.46c2.318 0 4.417.94 5.935 2.46a8.368 8.368 0 012.46 5.935 8.37 8.37 0 01-2.46 5.936A8.368 8.368 0 0113.66 27.5a8.406 8.406 0 01-1.066-.209l-.39-.103V21.13l.814.548c.247.167.517.297.8.384.275.083.57.128.882.128a3.007 3.007 0 003.013-3.013 3.005 3.005 0 00-3.013-3.012 3.008 3.008 0 00-3.013 3.012v17.491h-.523zm-2.663-2.152a3.769 3.769 0 002.142 1.072v-16.41c0-1.12.454-2.133 1.188-2.867l.002-.002a4.043 4.043 0 012.867-1.189c1.119 0 2.132.454 2.867 1.189l.002.002a4.042 4.042 0 011.188 2.866 4.041 4.041 0 01-1.188 2.867l-.002.002a4.043 4.043 0 01-4.319.918v3.412a7.39 7.39 0 001.495.151c2.03 0 3.868-.823 5.198-2.153a7.328 7.328 0 002.153-5.198c0-2.03-.823-3.868-2.153-5.197a7.328 7.328 0 00-5.198-2.153c-2.03 0-3.867.823-5.197 2.153a7.328 7.328 0 00-2.153 5.197v12.676c0 1.038.424 1.98 1.108 2.664zm34.04-16.791H57v5.461h-3.577v5.911h-7.826v-5.911H42.02v-5.461h.522zm13.415 1.044H43.064v3.373h3.577v5.911h5.738V22.14h3.577v-3.373zM48.73 7.728a51.505 51.505 0 00-8.624-3.694c-3.575-1.148-7.675-1.99-12.008-1.99-7.282 0-14.255 1.9-19.15 5.963-4.221 3.505-6.904 8.64-6.904 15.582 0 6.989 2.543 12.105 6.634 15.567 4.685 3.963 11.412 5.785 18.7 5.785 4.869 0 9.307-.95 13.008-2.178a47.313 47.313 0 008.344-3.698v-7.553c-1.634.919-3.822 1.985-6.29 2.764-2.074.654-4.348 1.107-6.667 1.107-5.787 0-9.428-3.016-11.027-6.89a12.63 12.63 0 01-.934-4.795 12.931 12.931 0 01.912-4.801c1.567-3.914 5.127-6.983 10.567-7.005 2.763-.011 5.485.532 7.932 1.29a39.415 39.415 0 015.507 2.198V7.728zm-8.306-4.685C36.754 1.864 32.545 1 28.098 1 20.59 1 13.378 2.977 8.283 7.208 3.83 10.905 1 16.305 1 23.588c0 7.327 2.685 12.707 7.005 16.362 4.886 4.134 11.853 6.034 19.373 6.034 4.985 0 9.537-.975 13.334-2.235a48.276 48.276 0 008.799-3.934l.263-.152v-9.967l-.787.469c-1.628.968-4.052 2.232-6.858 3.116-1.98.625-4.15 1.059-6.356 1.059-5.296 0-8.617-2.733-10.065-6.242a11.581 11.581 0 01-.857-4.4c0-1.509.28-3.02.839-4.414 1.422-3.55 4.656-6.333 9.605-6.353 2.642-.01 5.26.513 7.621 1.246 2.373.736 4.483 1.68 6.1 2.506l.758.387V7.112l-.273-.149a52.62 52.62 0 00-9.077-3.92z"/></symbol><symbol viewBox="0 0 56 56" id="calendar" xmlns="http://www.w3.org/2000/svg"><path d="M40.133 23.333c-8.763 0-15.866 7.104-15.866 15.867 0 8.763 7.104 15.867 15.866 15.867C48.896 55.067 56 47.963 56 39.2c-.01-8.759-7.108-15.857-15.867-15.867zm0 29.867c-7.732 0-14-6.268-14-14s6.268-14 14-14 14 6.268 14 14c-.008 7.728-6.272 13.991-14 14z"/><path d="M41.067 36.572V30.8H39.2v5.772a2.797 2.797 0 00-1.695 1.695H33.6v1.866h3.905a2.794 2.794 0 103.562-3.561zm-.934 3.561a.933.933 0 110-1.866.933.933 0 010 1.866zM28 38.267h1.867v1.866H28v-1.866zm11.2 11.2h1.867v1.866H39.2v-1.866zm11.2-11.2h1.867v1.866H50.4v-1.866zm-11.2-11.2h1.867v1.866H39.2v-1.866z"/><path d="M1.867 41.067V14H44.8v8.4h1.867V9.333A4.672 4.672 0 0042 4.667h-6.533v-.934a2.8 2.8 0 00-5.6 0v.934H16.8v-.934a2.8 2.8 0 00-5.6 0v.934H4.667A4.672 4.672 0 000 9.333v31.734a4.672 4.672 0 004.667 4.666h18.666v-1.866H4.667a2.8 2.8 0 01-2.8-2.8zM31.733 3.733a.933.933 0 011.867 0v3.734a.933.933 0 01-1.867 0V3.733zm-18.666 0a.933.933 0 011.866 0v3.734a.933.933 0 01-1.866 0V3.733zm-8.4 2.8H11.2v.934a2.8 2.8 0 005.6 0v-.934h13.067v.934a2.8 2.8 0 005.6 0v-.934H42a2.8 2.8 0 012.8 2.8v2.8H1.867v-2.8a2.8 2.8 0 012.8-2.8z"/><path d="M13.067 21.467A1.867 1.867 0 0011.2 19.6H7.467A1.867 1.867 0 005.6 21.467V25.2c0 1.031.836 1.867 1.867 1.867H11.2a1.867 1.867 0 001.867-1.867v-3.733zm-5.6 3.733v-3.733H11.2V25.2H7.467zM22.4 21.467a1.867 1.867 0 00-1.867-1.867H16.8c-1.03 0-1.867.836-1.867 1.867V25.2c0 1.031.836 1.867 1.867 1.867h3.733A1.867 1.867 0 0022.4 25.2v-3.733zM16.8 25.2v-3.733h3.733V25.2H16.8zm14.933-.933v-2.8a1.866 1.866 0 00-1.866-1.867h-3.734c-1.03 0-1.866.836-1.866 1.867V25.2c0 1.031.835 1.867 1.866 1.867H28V25.2h-1.867v-3.733h3.734v2.8h1.866zM11.2 30.8H7.467A1.867 1.867 0 005.6 32.667V36.4c0 1.03.836 1.867 1.867 1.867H11.2a1.867 1.867 0 001.867-1.867v-3.733A1.867 1.867 0 0011.2 30.8zm-3.733 5.6v-3.733H11.2V36.4H7.467zm13.066-5.6H16.8c-1.03 0-1.867.836-1.867 1.867V36.4c0 1.03.836 1.867 1.867 1.867h3.733A1.867 1.867 0 0022.4 36.4v-3.733a1.867 1.867 0 00-1.867-1.867zM16.8 36.4v-3.733h3.733V36.4H16.8zm24.267-14v-.933A1.867 1.867 0 0039.2 19.6h-3.733a1.867 1.867 0 00-1.867 1.867v.933h1.867v-.933H39.2v.933h1.867z"/></symbol><symbol viewBox="0 0 56 56" id="certificate" xmlns="http://www.w3.org/2000/svg"><g clip-path="url(#cclip0)"><path d="M37.333 30.8a5.606 5.606 0 00-5.6 5.6c0 3.089 2.512 5.6 5.6 5.6 3.089 0 5.6-2.511 5.6-5.6 0-3.088-2.511-5.6-5.6-5.6zm0 9.333A3.737 3.737 0 0133.6 36.4a3.737 3.737 0 013.733-3.733 3.737 3.737 0 013.734 3.733 3.737 3.737 0 01-3.734 3.733z"/><path d="M39.2 40.133v3.857l-1.35-.9a.93.93 0 00-1.035 0l-1.348.9v-3.857H33.6v5.6a.933.933 0 001.451.777l2.282-1.521 2.282 1.52a.938.938 0 00.959.047.934.934 0 00.493-.823v-5.6H39.2zm-5.6-30.8H21.467V11.2H33.6V9.333zm9.333 5.6H13.067V16.8h29.866v-1.867zm-9.333 5.6H13.067V22.4H33.6v-1.867zm9.333 0h-5.6V22.4h5.6v-1.867zm0 5.6H13.067V28h29.866v-1.867zm-18.666 5.6h-11.2V33.6h11.2v-1.867zM17.733 36.4h-4.666v1.867h4.666V36.4zm6.534 0h-2.8v1.867h2.8V36.4zM51.333 0a4.672 4.672 0 00-4.666 4.667v1.866c0 .516.417.934.933.934h7.466A.933.933 0 0056 6.533V4.667A4.672 4.672 0 0051.333 0zm2.8 5.6h-5.6v-.933c0-1.544 1.256-2.8 2.8-2.8 1.544 0 2.8 1.256 2.8 2.8V5.6z"/><path d="M51.333 0h-39.2a4.672 4.672 0 00-4.666 4.667v44.8h1.867v-44.8c0-1.544 1.256-2.8 2.8-2.8h35.468a4.642 4.642 0 00-.935 2.8v46.666c0 1.544-1.256 2.8-2.8 2.8H8.4V56h35.467a4.672 4.672 0 004.666-4.667V4.667c0-1.544 1.257-2.8 2.8-2.8a.933.933 0 100-1.867z"/><path d="M43.867 54.133a2.803 2.803 0 01-2.8-2.8v-1.866a.932.932 0 00-.934-.934H.933a.933.933 0 00-.933.934v1.866A4.672 4.672 0 004.667 56h39.2a.932.932 0 100-1.867zm-39.2 0a2.803 2.803 0 01-2.8-2.8V50.4H39.2v.933c0 1.05.348 2.02.935 2.8H4.667z"/></g><defs><clipPath id="cclip0"><path d="M0 0h56v56H0z"/></clipPath></defs></symbol><symbol viewBox="0 0 12 8" id="chevron" xmlns="http://www.w3.org/2000/svg"><path fill-rule="evenodd" clip-rule="evenodd" d="M10.6.6L6 5.2 1.4.6 0 2l6 6 6-6L10.6.6z"/></symbol><symbol viewBox="0 0 16 16" id="close" xmlns="http://www.w3.org/2000/svg"><path fill-rule="evenodd" clip-rule="evenodd" d="M14 0L8 6 2 0 0 2l6 6-6 6 2 2 6-6 6 6 2-2-6-6 6-6-2-2z"/></symbol><symbol viewBox="0 0 20 16" id="email" xmlns="http://www.w3.org/2000/svg"><path d="M17.558 0H2.446C1.096 0 0 1.153 0 2.57v10.86C0 14.846 1.097 16 2.446 16h15.108C18.904 16 20 14.847 20 13.43V2.574C20.004 1.157 18.907 0 17.558 0zm.713 14.135a.596.596 0 01-.866.025L11.95 8.713l-1.53 1.44a.591.591 0 01-.817.005L8.116 8.76 2.63 14.156a.6.6 0 01-.418.172.613.613 0 01-.45-.205.67.67 0 01.028-.911l5.405-5.319-5.427-5.1a.666.666 0 01-.05-.912.591.591 0 01.866-.052l5.872 5.524a.83.83 0 01.1.09c0 .005.005.01.009.015l1.443 1.355 7.397-6.978a.595.595 0 01.866.048.671.671 0 01-.045.91L12.863 7.85l5.386 5.375a.67.67 0 01.022.91z"/></symbol><symbol viewBox="0 0 56 56" id="guarantee" xmlns="http://www.w3.org/2000/svg"><g clip-path="url(#gclip0)"><path d="M47.213 9.21a26.215 26.215 0 01-5.034-1.143.82.82 0 00-.522 1.555c1.71.574 3.51.982 5.35 1.215 2.762.35 4.732 2.898 4.393 5.68-.445 3.649-1.26 9.095-2.613 14.32-1.474 5.69-3.205 9.649-5.143 11.767-3.98 4.35-8.971 8.206-12.457 10.674a5.305 5.305 0 01-6.123 0c-3.486-2.468-8.477-6.324-12.457-10.674-1.939-2.118-3.67-6.077-5.144-11.768-1.353-5.224-2.167-10.67-2.613-14.32-.338-2.781 1.632-5.33 4.393-5.679 7.96-1.006 13.234-5.006 16.258-8.183a3.59 3.59 0 012.624-1.123c1.003 0 1.935.4 2.624 1.123a26.912 26.912 0 007.485 5.548.82.82 0 00.733-1.467 25.29 25.29 0 01-7.03-5.212 5.215 5.215 0 00-3.812-1.632c-1.456 0-2.81.58-3.812 1.632-2.84 2.984-7.796 6.74-15.276 7.686-3.655.463-6.263 3.83-5.815 7.507.764 6.266 3.09 21.44 8.174 26.996 4.079 4.457 9.168 8.39 12.719 10.905a6.93 6.93 0 004.01 1.274 6.934 6.934 0 004.01-1.274c3.551-2.515 8.64-6.448 12.719-10.905 5.085-5.556 7.41-20.73 8.175-26.996.448-3.677-2.161-7.044-5.816-7.507z"/><path d="M26.274 7.596c-4.15 3.591-8.994 5.942-14.398 6.986a3.17 3.17 0 00-2.531 3.545c.382 2.807 1.164 8.058 2.102 11.677 1.71 6.6 3.362 9.112 4.195 10.022 2.739 2.993 7.82 6.991 10.606 9.108a3.1 3.1 0 001.877.63 3.1 3.1 0 001.878-.63c2.785-2.117 7.866-6.115 10.605-9.108.833-.91 2.486-3.422 4.196-10.022.938-3.62 1.72-8.87 2.102-11.677a3.17 3.17 0 00-2.531-3.545c-5.405-1.044-10.25-3.395-14.399-6.986a2.844 2.844 0 00-3.702 0zM45.28 17.905c-.377 2.772-1.148 7.949-2.065 11.488-1.728 6.67-3.359 8.824-3.817 9.326-2.751 3.005-8.181 7.231-10.389 8.909a1.465 1.465 0 01-1.768 0c-2.207-1.678-7.638-5.904-10.388-8.91-.46-.5-2.09-2.654-3.818-9.325-.917-3.538-1.687-8.716-2.065-11.488a1.529 1.529 0 011.217-1.712c5.69-1.1 10.791-3.574 15.161-7.356.221-.192.5-.288.777-.288.278 0 .556.096.777.288 4.37 3.782 9.471 6.256 15.162 7.356a1.53 1.53 0 011.216 1.712z"/><path d="M23.576 25.492c-.617-.503-2.7-1.54-4.19.43-1.491 1.97-.187 3.688.43 4.19l2.379 1.936a.82.82 0 101.035-1.273l-2.379-1.935c-.276-.226-.881-.96-.193-1.883.689-.922 1.605-.419 1.882-.193l4.926 4.008a.82.82 0 001.095-.054l7.208-7.14a1.34 1.34 0 011.892.009 1.34 1.34 0 01-.009 1.891l-8.585 8.506c-.68.655-1.428.382-1.786.087l-1.363-1.109a.821.821 0 00-1.036 1.273l1.363 1.109c.53.43 1.197.668 1.88.668a2.96 2.96 0 002.097-.862l8.585-8.506a2.982 2.982 0 00.02-4.212 2.982 2.982 0 00-4.213-.02l-6.684 6.622-4.354-3.542z"/></g><defs><clipPath id="gclip0"><path d="M0 0h56v56H0z"/></clipPath></defs></symbol><symbol viewBox="0 0 56 56" id="highQuality" xmlns="http://www.w3.org/2000/svg"><g clip-path="url(#hclip0)"><path d="M42.91 24.727a3.219 3.219 0 00-3.214-3.215h-5.909c1.436-1.614 2.374-3.451 2.555-5.1a3.545 3.545 0 00-.853-2.742 3.082 3.082 0 00-2.3-1.055h-.03c-.857 0-1.66.33-2.267.93a3.175 3.175 0 00-.947 2.258c-.031.187-.36.832-1.166 1.598-.66.627-1.799 1.49-3.48 2.036-.66.214-1.263.608-1.792 1.172-.278.295-.694.703-1.209 1.113a1.8 1.8 0 00-.845-.21h-5.612c-.999 0-1.812.813-1.812 1.812v14.964c0 1 .813 1.812 1.812 1.812h5.612c.681 0 1.275-.378 1.585-.935h14.32a2.75 2.75 0 002.747-2.747c0-.51-.14-.987-.382-1.396a2.748 2.748 0 00.935-3.742 2.748 2.748 0 00.84-3.892 3.215 3.215 0 001.413-2.662zm-3.214 1.46h-.468a.877.877 0 000 1.755.995.995 0 010 1.987h-.935a.877.877 0 000 1.754.995.995 0 010 1.987h-.935a.877.877 0 100 1.754.995.995 0 010 1.988H23.265v-8.476a.877.877 0 00-1.753 0v9.352a.058.058 0 01-.059.059h-5.612a.058.058 0 01-.058-.059V23.324c0-.033.026-.059.058-.059h5.612c.032 0 .059.026.059.058v1.871a.877.877 0 001.753 0v-1.87a1.77 1.77 0 00-.006-.127 13.307 13.307 0 001.526-1.388c.325-.346.68-.583 1.055-.704 2.064-.67 3.453-1.75 4.254-2.536 1.005-.987 1.604-2.015 1.604-2.751 0-.39.152-.754.428-1.027a1.47 1.47 0 011.047-.423c.492.005.817.256 1.004.466.32.36.477.88.422 1.387-.192 1.742-1.585 3.895-3.55 5.486a.877.877 0 00.552 1.558h8.095a1.463 1.463 0 010 2.923z"/><path d="M18.647 34.596a.885.885 0 00-.881.881c0 .485.397.882.881.882a.885.885 0 00.882-.882.885.885 0 00-.882-.881z"/><path d="M54.437 28l1.506-3.985a.877.877 0 00-.136-.859l-2.664-3.325.2-4.256a.877.877 0 00-.394-.775l-3.561-2.34-1.124-4.11a.877.877 0 00-.615-.614l-4.11-1.124-2.34-3.561a.878.878 0 00-.773-.394l-4.257.2L32.844.193a.877.877 0 00-.858-.136L28 1.563 24.014.057a.876.876 0 00-.858.136L19.83 2.857l-4.256-.2a.875.875 0 00-.774.394l-2.34 3.561-4.11 1.125a.877.877 0 00-.614.614l-1.124 4.11-3.562 2.34a.877.877 0 00-.394.774l.2 4.256-2.663 3.325a.877.877 0 00-.136.859L1.563 28 .056 31.986a.877.877 0 00.136.859l2.665 3.325-.201 4.256a.877.877 0 00.394.774l3.562 2.34 1.124 4.11a.877.877 0 00.614.614l4.11 1.124 2.34 3.562a.88.88 0 00.774.394l4.256-.2 3.326 2.664a.876.876 0 00.858.136L28 54.437l3.986 1.507a.88.88 0 00.858-.136l3.325-2.664 4.257.2a.878.878 0 00.774-.394l2.34-3.562 4.11-1.124a.877.877 0 00.614-.614l1.124-4.11 3.561-2.34c.26-.17.41-.464.395-.774l-.201-4.256 2.664-3.325a.877.877 0 00.136-.859L54.437 28zm-1.758.31l1.447 3.828-2.559 3.194a.877.877 0 00-.191.59l.193 4.087-3.42 2.247a.877.877 0 00-.365.502l-1.08 3.947-3.947 1.08a.877.877 0 00-.502.364l-2.246 3.42-4.088-.193a.878.878 0 00-.59.192l-3.193 2.559-3.828-1.447a.878.878 0 00-.62 0l-3.828 1.447-3.194-2.56a.878.878 0 00-.59-.19l-4.087.192-2.247-3.42a.877.877 0 00-.501-.365l-3.948-1.08-1.08-3.947a.878.878 0 00-.364-.501l-3.42-2.247.193-4.087a.876.876 0 00-.192-.59l-2.558-3.194L3.32 28.31a.877.877 0 000-.62l-1.446-3.828 2.558-3.193a.876.876 0 00.192-.59l-.193-4.087 3.42-2.247a.877.877 0 00.365-.502l1.08-3.947 3.947-1.08a.878.878 0 00.501-.364l2.247-3.42 4.088.193a.878.878 0 00.59-.192l3.193-2.559 3.828 1.447c.2.076.42.076.62 0l3.828-1.447 3.193 2.56a.876.876 0 00.59.19l4.088-.192 2.246 3.42a.877.877 0 00.502.364l3.947 1.08 1.08 3.947a.877.877 0 00.364.502l3.42 2.247-.192 4.087a.877.877 0 00.191.59l2.559 3.194-1.447 3.828a.877.877 0 000 .62z"/><path d="M44.476 12.86a22.85 22.85 0 00-1.376-1.375.877.877 0 10-1.186 1.291 21.192 21.192 0 011.27 1.27.874.874 0 001.239.053.877.877 0 00.053-1.24zm-4.489-3.768A22.472 22.472 0 0025.652 5.72a22.438 22.438 0 00-13.511 6.437 22.322 22.322 0 00-6.54 14.92 22.315 22.315 0 005.223 15.308.875.875 0 001.236.106.877.877 0 00.106-1.236 20.565 20.565 0 01-4.812-14.107 20.572 20.572 0 016.027-13.75 20.677 20.677 0 0112.452-5.934 20.709 20.709 0 0113.211 3.107.877.877 0 10.943-1.48zm6.881 6.881a.877.877 0 10-1.479.943 20.71 20.71 0 013.107 13.211 20.68 20.68 0 01-5.933 12.452 20.573 20.573 0 01-13.75 6.027 20.561 20.561 0 01-14.108-4.812.877.877 0 10-1.13 1.342 22.301 22.301 0 0015.308 5.222 22.321 22.321 0 0014.92-6.539 22.437 22.437 0 006.438-13.51 22.471 22.471 0 00-3.373-14.336z"/></g><defs><clipPath id="hclip0"><path d="M0 0h56v56H0z"/></clipPath></defs></symbol><symbol viewBox="0 0 32 32" id="logo" xmlns="http://www.w3.org/2000/svg"><path fill-rule="evenodd" clip-rule="evenodd" d="M3 0a3 3 0 00-3 3v15.333a3 3 0 003 3h2.333v-13a3 3 0 013-3h13V3a3 3 0 00-3-3H3zm7.667 29v-2.333h13a3 3 0 003-3v-13H29a3 3 0 013 3V29a3 3 0 01-3 3H13.667a3 3 0 01-3-3zm10.666-10.667v-7.666h-7.666a3 3 0 00-3 3v7.666h7.666a3 3 0 003-3z"/></symbol><symbol viewBox="0 0 14 18" id="mark" xmlns="http://www.w3.org/2000/svg"><path d="M6.975 0h-.101C3.085.06 0 3.197 0 6.985c0 4.322 4.301 8.694 6.482 10.623l.01.01c.161.141.302.262.432.382 1.97-1.678 6.925-6.372 6.925-11.015 0-3.799-3.085-6.924-6.874-6.985zm.02 9.9c-2 0-3.618-1.619-3.618-3.619s1.618-3.618 3.618-3.618c2 0 3.618 1.618 3.618 3.618 0 2-1.617 3.619-3.618 3.619z"/></symbol><symbol viewBox="0 0 22 24" id="pdfDoc" xmlns="http://www.w3.org/2000/svg"><path d="M20.282 8.585h-.576V5.804c0-.017-.003-.035-.005-.052a.462.462 0 00-.111-.305L14.962.16 14.96.158a.468.468 0 00-.094-.079c-.01-.007-.02-.012-.031-.018a.485.485 0 00-.093-.04l-.025-.008A.469.469 0 0014.608 0H3.236a.942.942 0 00-.942.941v7.643h-.576c-.743 0-1.345.603-1.345 1.346v6.995c0 .743.602 1.345 1.345 1.345h.576v4.789c0 .519.422.941.942.941h15.529a.942.942 0 00.941-.941V18.27h.576c.743 0 1.346-.602 1.346-1.345V9.93c0-.743-.603-1.345-1.346-1.345zM3.236.94h10.901v4.816c0 .26.211.47.47.47h4.158v2.358H3.235V.941zm11.553 12.524c0 1.345-.49 2.273-1.168 2.847-.74.615-1.866.907-3.242.907a14 14 0 01-1.804-.104v-6.903a14.21 14.21 0 012.148-.146c1.334 0 2.2.24 2.878.75.73.543 1.188 1.408 1.188 2.649zm-12.272 3.68v-6.933c.49-.083 1.178-.146 2.148-.146.98 0 1.678.188 2.147.563.449.355.75.939.75 1.627 0 .688-.228 1.272-.646 1.668-.542.511-1.345.74-2.283.74-.208 0-.397-.01-.542-.03v2.512H2.517zm16.248 5.659H3.235V18.27h15.53v4.534zm1.364-11.382h-2.701v1.605h2.523v1.293h-2.523v2.826h-1.595v-7.028h4.296v1.304z"/></symbol><symbol viewBox="0 0 18 18" id="phone" xmlns="http://www.w3.org/2000/svg"><path d="M15.125 11.242c-.642-.642-1.454-.642-2.104 0-.49.49-.99.98-1.471 1.478-.128.135-.245.17-.406.076-.321-.177-.659-.311-.963-.505-1.437-.895-2.637-2.052-3.693-3.353-.525-.642-.998-1.334-1.319-2.11-.068-.16-.05-.262.076-.388.5-.474.98-.963 1.462-1.453.676-.684.676-1.478 0-2.162-.38-.388-.768-.767-1.158-1.156-.397-.398-.786-.794-1.191-1.19-.65-.634-1.462-.643-2.113 0-.498.489-.972.987-1.48 1.469-.464.447-.7.988-.751 1.621C-.063 4.6.19 5.57.546 6.525c.735 1.967 1.843 3.707 3.187 5.303 1.817 2.162 3.989 3.877 6.532 5.11 1.141.556 2.334.988 3.618 1.055.88.05 1.656-.169 2.273-.861.423-.474.896-.895 1.344-1.351.668-.668.668-1.478-.008-2.171a275.182 275.182 0 00-2.367-2.368z"/></symbol><symbol viewBox="0 0 56 36" id="russia" xmlns="http://www.w3.org/2000/svg"><path d="M4.51 19.163a.82.82 0 00.8-1.008c-.077-.33-.237-1.014-.012-1.31.16-.21.587-.337 1.201-.358 2.438-.086 3.186-1.212 3.908-2.302.388-.583.788-1.187 1.518-1.752.718-.556 1.025-.567 1.075-.564.046.048.366.46.248 2.267-.062.949.12 1.646.56 2.13.614.68 1.508.71 2.227.734.323.011.628.022.85.084.698.194 1.31.132 1.802.083.303-.03.616-.062.683.011.327.357.702.531 1.112.522.774-.022 1.299-.661 2.093-1.629l.226-.275a.6.6 0 01.092-.093c.113.025.365.178.535.281.607.37 1.523.926 2.665.437 1.257-.538 1.582-.937 2.197-1.789.223-.308.5-.692.922-1.195.743-.886 1.818-1.143 2.262-.938.07.032.284.131.183.723-.145.846.019 1.483.485 1.892.807.71 2.066.323 2.985.041.21-.064.449-.138.553-.153.08-.007.319.05.478.09.795.197 2.45.605 3.271-1.742.555-1.584.96-1.643 2.165-1.82a31 31 0 00.398-.06c2.672-.428 3.17-2.177 3.572-3.583.114-.4.221-.776.37-1.121.245-.564.696-.853 1.267-1.22.734-.47 1.647-1.056 2.032-2.364.184-.627.712-.986.996-1.079-.008.16-.061.445-.236.876-.618 1.515-.745 2.35-.453 2.983.267.578.8.755 1.12.861.123.04.239.08.295.118l.014.015a.82.82 0 101.226-1.091 1.702 1.702 0 00-.3-.269 2.654 2.654 0 00-.72-.33 5.152 5.152 0 01-.143-.05c.003-.161.064-.597.48-1.618.48-1.177.478-2.067-.004-2.646-.356-.429-.92-.6-1.544-.471-.872.18-1.944 1.007-2.306 2.238-.212.72-.686 1.025-1.343 1.446-.676.434-1.443.926-1.886 1.948-.192.444-.32.891-.443 1.324-.37 1.295-.613 2.15-2.253 2.412-.13.021-.256.04-.377.057-1.334.196-2.593.381-3.475 2.902-.329.938-.561.881-1.33.691-.356-.088-.724-.178-1.112-.12a5.84 5.84 0 00-.793.207c-.31.095-1.096.336-1.395.29a1.334 1.334 0 01.023-.378c.196-1.146-.22-2.076-1.11-2.489-1.235-.571-3.084.032-4.21 1.374-.46.548-.756.958-.994 1.288-.502.695-.621.86-1.513 1.242-.332.142-.597.015-1.166-.33-.563-.343-1.735-1.055-2.745.168l-.23.28c-.278.339-.61.744-.823.94-.607-.572-1.354-.498-1.96-.437-.41.041-.797.08-1.198-.031-.41-.115-.829-.129-1.234-.143-.43-.014-.919-.031-1.067-.195-.056-.061-.181-.275-.139-.921.088-1.342.068-3.198-1.116-3.827-1.14-.605-2.427.391-2.85.719-.942.73-1.461 1.513-1.879 2.142-.647.976-1.004 1.513-2.598 1.569-1.146.04-1.97.377-2.447 1.002-.697.91-.417 2.106-.282 2.68a.82.82 0 00.798.634zm49.863-5.137a24.325 24.325 0 00-.676-.793c-.994-1.132-1.291-1.558-1.003-2.264.065-.16.123-.332.171-.51a.82.82 0 00-1.583-.431 2.809 2.809 0 01-.108.322c-.695 1.705.314 2.854 1.29 3.965.207.237.423.482.632.742.722.893 1.202 2.354 1.266 3.05-1.698-.44-2.645-1.227-2.819-2.341l-.045-.296c-.2-1.315-.407-2.674-1.56-2.962-.724-.181-1.657.06-2.27.584a2.084 2.084 0 00-.737 1.815c.02.22.05.452.081.697.11.856.276 2.149-.202 2.476-1.18.807-1.307 2.063-1.441 3.393-.03.288-.059.585-.1.893-.117.878.198 1.344.483 1.58.718.595 1.748.255 2.575-.019.184-.06.358-.118.486-.15.297-.074.717.45 1.318 1.653.176.352.371.654.543.92.57.879 1.019 1.573.514 3.944-.22 1.033-.54 1.372-.643 1.427-.078-.051-.22-.285-.134-.565.364-1.183.355-2.102-.026-2.73a1.606 1.606 0 00-1.118-.758c-.488-.088-.795-.021-1.133.249-.086.068-.313.25-1.459.445-1.286.22-1.535.016-2.136-.477a7.658 7.658 0 00-1.086-.775c-.799-.461-1.379-.336-1.724-.15-1.013.545-1.156 2.096-1.305 4.581-.021.35-.096.594-.211.687-.261.211-1.093.084-1.76-.017-.794-.121-1.693-.258-2.513-.07-1.116.255-1.923-.035-2.57-.269-.386-.139-.718-.258-1.074-.258-.857 0-1.094.832-1.195 1.188-.035.123-.1.348-.153.42-.04.006-.19.016-.518-.099-1.66-.583-2.651.039-3.308.45-.353.222-.564.348-.79.348-.739 0-2.508-.188-2.978-1.926-.47-1.743-1.828-1.875-2.558-1.947a7.178 7.178 0 01-.257-.028c-.293-1.708-2.07-1.79-4.297-1.894-1.471-.069-2.149.328-2.34 1.368l-.022.113a.886.886 0 01-.182.062c-1.035.258-2.1-1.05-2.228-1.447-.218-.675-.98-1.738-3.625-1.266-1.473.263-1.568 1.703-1.62 2.476-.007.114-.017.26-.03.383-.997.086-1.458 1.129-1.77 1.875-.22-.753-.661-1.765-2.003-2.506-.347-.192-.764-.507-.784-.924a.785.785 0 01.172-.514c.604.015 2.393-.04 3.138-1.169.313-.473.545-1.292-.123-2.505a2.913 2.913 0 01-.343-1.906.82.82 0 00-1.623-.245 4.558 4.558 0 00.53 2.943c.206.375.277.677.19.81-.231.35-1.319.478-1.81.43-.77-.077-1.431.671-1.663 1.415-.141.452-.448 2.012 1.522 3.1.977.54 1.148 1.219 1.313 1.874.132.521.33 1.308 1.174 1.477 1.05.21 1.5-.871 1.799-1.587.116-.28.328-.786.478-.929.44.027.738-.14.912-.289.478-.406.521-1.053.559-1.625.053-.802.123-.942.27-.969 1.189-.212 1.72-.016 1.776.157.364 1.124 2.172 3.036 4.187 2.532 1.206-.3 1.35-1.09 1.42-1.47v-.005c.104-.018.301-.036.65-.02 1.04.048 1.939.1 2.425.257.316.101.324.176.341.355.115 1.149 1.189 1.254 1.705 1.304.681.067.965.119 1.133.742.787 2.912 3.691 3.138 4.562 3.138.709 0 1.237-.331 1.662-.598.59-.37.978-.613 1.892-.292.737.259 1.334.262 1.823.008.606-.314.82-.912.94-1.322l.164.059c.76.273 1.907.686 3.492.324.517-.118 1.22-.01 1.9.093 1.09.166 2.215.337 3.04-.33.491-.397.766-1.024.817-1.864.058-.963.162-2.704.425-3.181.036.014.085.037.146.073.356.205.615.417.866.623.863.707 1.57 1.147 3.452.826 1.221-.209 1.733-.445 2.05-.664.05.135.09.548-.158 1.358-.237.769-.04 1.622.504 2.173.448.454 1.061.625 1.641.456.601-.175 1.402-.78 1.804-2.667.647-3.034-.059-4.124-.74-5.178a7.578 7.578 0 01-.454-.762c-.55-1.099-1.47-2.938-3.183-2.51-.188.046-.39.113-.603.184-.23.076-.654.216-.922.256a1.21 1.21 0 01.005-.043c.044-.334.076-.644.106-.945.125-1.234.208-1.843.735-2.204 1.306-.894 1.073-2.711.903-4.038-.03-.23-.057-.447-.075-.638a.448.448 0 01.17-.42 1.17 1.17 0 01.764-.246c.164.222.291 1.061.377 1.624l.046.302c.207 1.328 1.15 3.061 4.464 3.782.573.124 1.087-.081 1.377-.55.76-1.232-.467-4.083-1.39-5.224z"/></symbol><symbol viewBox="0 0 56 56" id="tools" xmlns="http://www.w3.org/2000/svg"><g clip-path="url(#nclip0)"><path d="M38.065 16.97a1.094 1.094 0 100 2.186 1.094 1.094 0 100-2.187zM18.153 36.842a1.094 1.094 0 100 2.187 1.094 1.094 0 100-2.187z"/><path d="M54.8 6.729a1.096 1.096 0 00-1.025.295l-4.543 4.57h-2.178l-2.398-2.48V6.91l4.478-4.536a1.092 1.092 0 00-.43-1.804 10.95 10.95 0 00-3.5-.57c-3.57 0-6.812 1.661-8.897 4.558-1.951 2.71-2.553 6.034-1.69 9.213l-8.073 8.057L13.095 8.375v-2.64c0-.384-.202-.74-.532-.938L4.814.156a1.097 1.097 0 00-1.338.165l-3.1 3.092A1.093 1.093 0 00.212 4.75l4.649 7.733c.197.33.554.531.939.531l2.644.001 13.45 13.453-8.041 8.026c-3.186-.86-6.517-.258-9.235 1.69-2.9 2.08-4.564 5.315-4.564 8.878 0 1.194.193 2.37.572 3.492a1.094 1.094 0 001.816.421l4.543-4.57h2.19l2.495 2.49v2.187l-4.578 4.534a1.092 1.092 0 00.422 1.813c1.124.378 2.302.57 3.499.57 3.57 0 6.81-1.66 8.895-4.555 1.952-2.713 2.554-6.037 1.693-9.217l6.459-6.445 1.479 1.603-.679.678a1.092 1.092 0 000 1.547 1.098 1.098 0 001.55 0l.615-.614 13.88 15.049.033.032a6.583 6.583 0 009.3 0 6.563 6.563 0 00-.035-9.314L39.101 30.936l.608-.607a1.092 1.092 0 000-1.547 1.098 1.098 0 00-1.55 0l-.674.674-1.61-1.475 6.49-6.477a11 11 0 002.839.37c6.043 0 10.958-4.906 10.958-10.936a10.9 10.9 0 00-.571-3.493c-.121-.36-.42-.63-.79-.716zm-45.125 4.42a1.086 1.086 0 00-.776-.31H6.421L2.53 4.356 4.42 2.47l6.482 3.883v2.474c0 .29.115.567.32.772l13.771 13.775-1.55 1.547-13.77-13.773zM37.55 32.484l15.153 13.874a4.377 4.377 0 01-.016 6.173 4.39 4.39 0 01-6.185.014L32.576 37.448l4.974-4.964zm-1.616-1.48l-4.844 4.833-1.48-1.604 4.714-4.704 1.61 1.475zm9.27-11.317a8.773 8.773 0 01-2.801-.456 1.1 1.1 0 00-1.125.263l-21.691 21.65a1.092 1.092 0 00-.264 1.122c.911 2.7.476 5.58-1.196 7.902a8.672 8.672 0 01-7.114 3.643c-.32 0-.64-.017-.956-.05l3.481-3.448c.207-.205.324-.484.324-.776v-3.094c0-.29-.115-.569-.32-.774l-3.138-3.131a1.097 1.097 0 00-.775-.32h-3.1c-.293 0-.573.116-.778.323l-3.454 3.474a8.83 8.83 0 01-.051-.954c0-2.849 1.33-5.437 3.65-7.1 2.327-1.668 5.212-2.103 7.918-1.194.394.133.83.031 1.124-.263L36.63 14.855c.294-.294.396-.728.264-1.122-.912-2.7-.477-5.579 1.193-7.9a8.673 8.673 0 017.116-3.645c.33 0 .66.018.985.054l-3.409 3.452c-.202.205-.315.48-.315.768v3.094c0 .284.11.556.308.76l3.027 3.13c.207.215.491.335.789.335h3.1c.292 0 .572-.116.778-.324l3.453-3.473c.034.315.052.634.052.954 0 4.824-3.933 8.75-8.767 8.75z"/><path d="M34.19 20.383L20.478 34.069a1.093 1.093 0 000 1.547 1.098 1.098 0 001.55 0L35.741 21.93a1.092 1.092 0 000-1.546 1.097 1.097 0 00-1.55 0zm13.849 29.055a1.098 1.098 0 001.55-.003 1.092 1.092 0 00-.002-1.547l-9.879-9.827a1.097 1.097 0 00-1.55.003 1.092 1.092 0 00.003 1.546l9.878 9.828z"/></g><defs><clipPath id="nclip0"><path d="M0 0h56v56H0z"/></clipPath></defs></symbol><symbol viewBox="0 0 56 56" id="truck" xmlns="http://www.w3.org/2000/svg"><path d="M13.067 36.867a5.606 5.606 0 00-5.6 5.6c0 3.088 2.511 5.6 5.6 5.6 3.088 0 5.6-2.512 5.6-5.6 0-3.089-2.512-5.6-5.6-5.6zm0 9.333a3.737 3.737 0 01-3.733-3.733 3.737 3.737 0 013.733-3.734 3.737 3.737 0 013.733 3.734 3.737 3.737 0 01-3.733 3.733zM44.8 36.867a5.606 5.606 0 00-5.6 5.6c0 3.088 2.511 5.6 5.6 5.6 3.088 0 5.6-2.512 5.6-5.6 0-3.089-2.512-5.6-5.6-5.6zm0 9.333a3.737 3.737 0 01-3.733-3.733 3.737 3.737 0 013.733-3.734 3.737 3.737 0 013.733 3.734A3.737 3.737 0 0144.8 46.2z"/><path d="M55.852 31.695l-8.4-13.067a.933.933 0 00-.785-.428H36.4a.933.933 0 00-.933.933v23.334c0 .516.417.933.933.933h3.733v-1.867h-2.8V20.067h8.824l7.976 12.407v9.06h-4.666V43.4h5.6a.932.932 0 00.933-.933V32.2a.931.931 0 00-.148-.505z"/><path d="M41.067 30.333V23.8h7.466v-1.867h-8.4a.933.933 0 00-.933.934v8.4c0 .516.417.933.933.933h14v-1.867H41.067zM36.4 11.667H.933A.934.934 0 000 12.6v29.867c0 .516.418.933.933.933H8.4v-1.867H1.867v-28h33.6v28H17.733V43.4H36.4a.932.932 0 00.933-.933V12.6a.933.933 0 00-.933-.933z"/><path d="M6.533 37.8h-5.6v1.867h5.6V37.8zm28.934 0H19.6v1.867h15.867V37.8zm19.599 0h-3.733v1.867h3.733V37.8zM36.4 15.4H3.733v1.867H36.4V15.4zM14 41.533h-1.867V43.4H14v-1.867zm31.733 0h-1.866V43.4h1.866v-1.867zM16.8 7.933H3.733V9.8H16.8V7.933zm-14.933 0H0V9.8h1.867V7.933z"/></symbol><symbol viewBox="0 0 56 51" id="wallet" xmlns="http://www.w3.org/2000/svg"><path d="M21.438 21.875a1.094 1.094 0 10-.002-2.188 1.094 1.094 0 00.002 2.188z"/><path d="M28 17.5c-.848 0-1.7.076-2.535.226a1.094 1.094 0 00.387 2.153c.707-.127 1.43-.192 2.148-.192 6.634 0 12.031 5.398 12.031 12.032S34.634 43.75 28 43.75s-12.031-5.397-12.031-12.031c0-2.565.8-5.014 2.311-7.082a1.094 1.094 0 00-1.766-1.291 14.094 14.094 0 00-2.733 8.373c0 7.84 6.379 14.218 14.219 14.218S42.219 39.56 42.219 31.72 35.84 17.5 28 17.5z"/><path d="M54.391 32.657l-2.766-3.673V20.78c0-6.634-5.397-12.031-12.031-12.031h-7.89l.73-2.19a3.284 3.284 0 003.222-3.279A3.285 3.285 0 0032.375 0a3.285 3.285 0 00-3.281 3.281c0 1.05.496 1.986 1.266 2.587L29.4 8.75h-2.8l-.96-2.882a3.276 3.276 0 001.266-2.587A3.285 3.285 0 0023.625 0a3.285 3.285 0 00-3.281 3.281c0 1.79 1.44 3.248 3.222 3.28l.73 2.189h-7.89c-6.634 0-12.031 5.397-12.031 12.031v8.242l-2.763 3.629-.008.011C.54 34.1 0 35.623 0 37.188c0 3.654 3.078 7.03 8.667 9.507C13.933 49.028 20.8 50.312 28 50.312c7.201 0 14.067-1.284 19.333-3.617C52.922 44.219 56 40.842 56 37.187c0-1.564-.54-3.087-1.609-4.53zM32.375 2.187a1.095 1.095 0 010 2.188 1.095 1.095 0 010-2.188zm-9.844 1.094a1.095 1.095 0 012.188 0 1.095 1.095 0 01-2.188 0zm-6.125 7.656h23.188c5.428 0 9.843 4.417 9.843 9.844v5.026a19.343 19.343 0 01-2.214-6.123 7.956 7.956 0 00-7.84-6.559H16.087c-.716 0-1.426.1-2.111.296-1.327.382-2.518 1.176-3.445 2.297A8.276 8.276 0 008.8 19.432a22.004 22.004 0 01-2.238 6.273V20.78c0-5.427 4.417-9.843 9.844-9.843zm30.04 33.758c-4.92 2.18-11.643 3.43-18.446 3.43-6.803 0-13.526-1.25-18.447-3.43-4.68-2.074-7.366-4.81-7.366-7.508 0-1.083.394-2.166 1.17-3.216l3.054-4.012.05-.064a24.202 24.202 0 004.488-10.051 6.084 6.084 0 011.268-2.732c.645-.78 1.462-1.33 2.363-1.588a5.45 5.45 0 011.507-.211h23.297c2.801 0 5.192 2 5.686 4.757a21.534 21.534 0 003.986 9.14l3.582 4.755c.78 1.052 1.175 2.136 1.175 3.222 0 2.698-2.685 5.434-7.366 7.508z"/></symbol><symbol viewBox="0 0 22 24" id="xslxDoc" xmlns="http://www.w3.org/2000/svg"><path d="M20.282 8.585h-.576V5.804c0-.017-.003-.035-.005-.052a.462.462 0 00-.112-.305L14.962.16l-.004-.003a.46.46 0 00-.094-.079l-.03-.018a.494.494 0 00-.093-.04c-.01-.002-.017-.005-.026-.008A.468.468 0 0014.607 0H3.235a.942.942 0 00-.941.941v7.643h-.576c-.743 0-1.345.603-1.345 1.346v6.995c0 .742.602 1.345 1.345 1.345h.576v4.789c0 .519.422.941.941.941h15.53a.942.942 0 00.94-.941V18.27h.577c.743 0 1.345-.602 1.345-1.345V9.93c0-.743-.602-1.345-1.345-1.345zM3.235.94h10.902v4.815c0 .26.21.471.47.471h4.158v2.358H3.235V.94zm9.535 12.832c-.925-.322-1.528-.833-1.528-1.643 0-.95.792-1.676 2.106-1.676.627 0 1.09.132 1.42.28l-.28 1.016a2.648 2.648 0 00-1.165-.264c-.545 0-.81.247-.81.537 0 .355.315.512 1.033.784.982.364 1.445.875 1.445 1.66 0 .933-.719 1.726-2.246 1.726-.636 0-1.264-.165-1.578-.339l.256-1.04c.339.173.86.347 1.396.347.578 0 .883-.24.883-.603 0-.347-.264-.545-.932-.784zm-2.13 1.28v1.058H7.162v-5.567h1.264v4.51h2.214zM3.125 16.11H1.688l1.61-2.817-1.552-2.75H3.19l.487 1.016c.165.338.29.61.421.925h.016c.133-.355.24-.603.38-.925l.47-1.016h1.438l-1.57 2.716 1.653 2.85H5.032l-.504-1.008c-.206-.387-.338-.676-.495-.998h-.016c-.116.322-.256.61-.43.998l-.462 1.009zm15.64 6.693H3.235V18.27h15.53v4.534zm.008-6.693l-.504-1.008c-.206-.388-.338-.677-.495-1h-.016c-.116.323-.257.612-.43 1l-.462 1.008h-1.438l1.61-2.817-1.552-2.75h1.445l.488 1.016c.165.338.289.61.421.925h.017c.131-.355.238-.603.379-.925l.47-1.016h1.438l-1.57 2.716 1.652 2.85h-1.453z"/></symbol></svg>