<svg width="20" height="16" viewBox="0 0 20 16" fill="none" xmlns="http://www.w3.org/2000/svg">
<path d="M17.5582 0H2.44576C1.09683 0 0 1.15296 0 2.57094V13.4291C0 14.847 1.09683 16 2.44576 16H17.5542C18.9032 16 20 14.847 20 13.4291V2.57516C20.004 1.15719 18.9072 0 17.5582 0ZM18.2714 14.1354C18.1488 14.2695 17.9901 14.336 17.8264 14.336C17.6768 14.336 17.5221 14.279 17.4046 14.1597L11.9506 8.71268L10.4208 10.1528C10.3073 10.2626 10.1577 10.3197 10.0131 10.3197C9.86741 10.3197 9.72277 10.2669 9.60425 10.1581L8.1157 8.76019L2.62957 14.1555C2.51205 14.2695 2.36139 14.3276 2.21173 14.3276C2.04801 14.3276 1.88529 14.2558 1.76276 14.1227C1.53174 13.8609 1.5448 13.4555 1.78987 13.2116L7.19465 7.89336L1.76778 2.79266C1.51366 2.55404 1.49056 2.14861 1.71756 1.88148C1.94455 1.61436 2.33025 1.59008 2.58437 1.82869L8.4562 7.35278C8.49236 7.38128 8.5245 7.40979 8.55564 7.44358C8.55564 7.4478 8.56066 7.45308 8.56468 7.45836L10.008 8.81299L17.4046 1.83503C17.6587 1.59641 18.0444 1.62069 18.2714 1.88254C18.4984 2.14966 18.4753 2.5551 18.2262 2.79372L12.8626 7.85007L18.2493 13.2253C18.4934 13.4681 18.5024 13.8778 18.2714 14.1354Z" fill="#FFB71B"/>
</svg>
