<svg width="14" height="18" viewBox="0 0 14 18" fill="none" xmlns="http://www.w3.org/2000/svg">
<path d="M6.97489 0C6.95491 0 6.94445 0 6.92447 0C6.90449 0 6.89402 0 6.87404 0C3.08547 0.0608912 0 3.19679 0 6.98536C0 11.3067 4.30139 15.6785 6.48206 17.608C6.48206 17.608 6.48205 17.608 6.49252 17.6185C6.65331 17.7593 6.79412 17.8801 6.92447 18C8.89392 16.3217 13.8489 11.6283 13.8489 6.98536C13.8499 3.18632 10.7644 0.0608912 6.97489 0ZM6.99487 9.89957C4.99498 9.89957 3.37661 8.2812 3.37661 6.2813C3.37661 4.28141 4.99498 2.66304 6.99487 2.66304C8.99477 2.66304 10.6131 4.28141 10.6131 6.2813C10.6131 8.2812 8.99572 9.89957 6.99487 9.89957Z" fill="#FFB71B"/>
</svg>
