<svg width="22" height="24" viewBox="0 0 22 24" fill="none" xmlns="http://www.w3.org/2000/svg">
<path d="M20.2825 8.58469H19.7062V5.80404C19.7062 5.7867 19.7034 5.76923 19.7011 5.75167C19.7002 5.64125 19.6651 5.5328 19.5895 5.44687L14.9622 0.160958C14.9608 0.159608 14.9594 0.159128 14.9585 0.157647C14.9309 0.126841 14.8987 0.10122 14.8647 0.0790412C14.8547 0.0722874 14.8445 0.066623 14.834 0.0607842C14.8045 0.0447058 14.7733 0.0313725 14.7411 0.0217429C14.7324 0.0193028 14.7246 0.0157298 14.7158 0.013464C14.6809 0.00518517 14.6446 0 14.6078 0H3.23561C2.71631 0 2.29444 0.422352 2.29444 0.941218V8.58447H1.71827C0.975399 8.58447 0.373047 9.18656 0.373047 9.9297V16.9251C0.373047 17.6677 0.975399 18.2702 1.71827 18.2702H2.29448V23.0588C2.29448 23.5776 2.71635 24 3.23566 24H18.765C19.2839 24 19.7062 23.5776 19.7062 23.0588V18.2702H20.2825C21.0252 18.2702 21.6276 17.6677 21.6276 16.9251V9.92992C21.6276 9.18682 21.0251 8.58469 20.2825 8.58469ZM3.23561 0.941393H14.1372V5.75676C14.1372 6.01676 14.3482 6.22735 14.6078 6.22735H18.765V8.58499H3.23561V0.941393ZM14.7894 13.465C14.7894 14.8104 14.2995 15.738 13.6207 16.3118C12.8813 16.9269 11.7549 17.2187 10.3791 17.2187C9.55556 17.2187 8.97181 17.1665 8.57512 17.1146V10.212C9.15895 10.1183 9.92056 10.0662 10.7234 10.0662C12.0573 10.0662 12.9229 10.3062 13.6009 10.8168C14.3305 11.359 14.7894 12.2242 14.7894 13.465ZM2.51666 17.1459V10.212C3.00646 10.129 3.69496 10.0662 4.66463 10.0662C5.64463 10.0662 6.34336 10.2539 6.81238 10.6295C7.26083 10.9838 7.56249 11.5678 7.56249 12.256C7.56249 12.9444 7.33373 13.5282 6.91635 13.9242C6.37421 14.4352 5.57147 14.6647 4.63282 14.6647C4.42463 14.6647 4.23631 14.6541 4.09099 14.6332V17.1461H2.51666V17.1459ZM18.765 22.804H3.23561V18.2702H18.765V22.804H18.765ZM20.1287 11.4216H17.4277V13.0273H19.9511V14.3203H17.4277V17.1459H15.8332V10.1183H20.1287V11.4216Z" fill="#FF2525"/>
</svg>
