<svg width="56" height="36" viewBox="0 0 56 36" fill="none" xmlns="http://www.w3.org/2000/svg">
<path d="M4.51079 19.1629C4.57271 19.1629 4.6356 19.1557 4.6985 19.1411C5.13967 19.0378 5.41358 18.5964 5.31032 18.1553C5.2332 17.8259 5.07283 17.1406 5.29818 16.8459C5.45876 16.6359 5.88538 16.5084 6.49927 16.4869C8.937 16.4013 9.68457 15.2748 10.4074 14.1854C10.7948 13.6017 11.1952 12.9982 11.9245 12.433C12.6427 11.8766 12.9505 11.8662 13.0004 11.869C13.0457 11.9171 13.3664 12.3282 13.2479 14.1363C13.1857 15.0847 13.3688 15.7816 13.8077 16.2666C14.4217 16.9451 15.316 16.9756 16.0346 17.0002C16.358 17.0113 16.6634 17.0218 16.8848 17.0835C17.5826 17.2778 18.1948 17.2164 18.6866 17.1671C18.9897 17.1366 19.3032 17.1052 19.3697 17.178C19.6974 17.5355 20.0716 17.709 20.4823 17.6998C21.2564 17.6784 21.7809 17.039 22.575 16.071C22.6476 15.9825 22.723 15.8907 22.8013 15.7958C22.8443 15.7437 22.8754 15.7161 22.8929 15.7026C23.0062 15.7279 23.2578 15.8809 23.4281 15.9844C24.0347 16.3531 24.9513 16.9103 26.093 16.4211C27.3496 15.8827 27.6746 15.4836 28.29 14.632C28.5127 14.3238 28.7899 13.9402 29.2119 13.4372C29.955 12.5512 31.0303 12.2936 31.4741 12.4988C31.5443 12.5313 31.7581 12.6301 31.657 13.222C31.5125 14.0681 31.6756 14.7048 32.1416 15.1144C32.9491 15.824 34.2081 15.4374 35.1274 15.1551C35.3376 15.0905 35.576 15.0173 35.6801 15.0017C35.7598 14.9946 35.999 15.0529 36.1577 15.0921C36.9531 15.2885 38.6081 15.6966 39.4294 13.3498C39.9837 11.7662 40.3894 11.7066 41.5941 11.5297C41.722 11.5109 41.8545 11.4914 41.9919 11.4694C44.6636 11.0419 45.1627 9.29257 45.5637 7.88681C45.6776 7.48765 45.7851 7.1107 45.9348 6.76557C46.179 6.20189 46.6302 5.91256 47.2013 5.54632C47.9349 5.07584 48.8479 4.49039 49.2325 3.18231C49.4171 2.55508 49.9454 2.19551 50.2294 2.10297C50.2211 2.26301 50.168 2.5483 49.9926 2.97885C49.3754 4.49356 49.2485 5.32984 49.5398 5.96178C49.8066 6.54045 50.3405 6.71744 50.6596 6.82311C50.7827 6.86391 50.899 6.90242 50.9552 6.94114C50.9552 6.94114 50.9602 6.94552 50.9694 6.95569C51.2705 7.29425 51.7891 7.32444 52.1278 7.02318C52.4662 6.72204 52.4964 6.20342 52.1951 5.86497C52.1018 5.76007 52.0009 5.66971 51.8945 5.59598C51.639 5.4191 51.382 5.334 51.1757 5.26563C51.1311 5.25086 51.0771 5.23292 51.0323 5.21651C51.0348 5.05473 51.0962 4.6187 51.512 3.59799C51.9915 2.4214 51.99 1.53109 51.5082 0.95187C51.1516 0.523174 50.5886 0.351652 49.9639 0.480731C49.0923 0.660895 48.0205 1.48788 47.6583 2.71938C47.4463 3.43982 46.9721 3.74414 46.3155 4.16517C45.639 4.59901 44.8723 5.09072 44.4292 6.11329C44.2367 6.55719 44.1092 7.00437 43.9858 7.43678C43.6164 8.73162 43.3725 9.58705 41.7326 9.84936C41.6024 9.87025 41.4769 9.88863 41.3557 9.90635C40.0224 10.1022 38.7629 10.287 37.8806 12.8079C37.5522 13.7465 37.32 13.6891 36.5507 13.4991C36.1951 13.4114 35.8275 13.3207 35.4387 13.3788C35.2114 13.4129 34.9491 13.4933 34.6456 13.5865C34.3367 13.6814 33.5501 13.9225 33.2514 13.8756C33.2438 13.8148 33.2403 13.6972 33.2743 13.4981C33.47 12.3524 33.0546 11.4222 32.1633 11.0095C30.9287 10.438 29.0798 11.0412 27.9547 12.3827C27.4949 12.9311 27.1984 13.3412 26.9603 13.6708C26.4581 14.3655 26.3388 14.5306 25.4468 14.9129C25.1148 15.0552 24.8498 14.9284 24.2806 14.5823C23.7175 14.24 22.5463 13.5279 21.5364 14.7505C21.4568 14.8469 21.3802 14.9402 21.3065 15.0301C21.0278 15.3699 20.6951 15.7755 20.4828 15.971C19.8765 15.3985 19.1294 15.4735 18.523 15.5342C18.1129 15.5753 17.7258 15.6142 17.3251 15.5026C16.9151 15.3884 16.496 15.3741 16.0907 15.3602C15.6602 15.3455 15.1722 15.3288 15.0243 15.1653C14.9684 15.1035 14.8428 14.89 14.8853 14.2435C14.9732 12.9023 14.9532 11.0464 13.7688 10.417C12.6292 9.81151 11.3422 10.8083 10.9195 11.1359C9.97707 11.8663 9.45769 12.6491 9.04027 13.2781C8.3929 14.2536 8.0364 14.7909 6.44173 14.8468C5.29588 14.8871 4.47272 15.2242 3.9948 15.8489C3.29843 16.7595 3.57825 17.9547 3.71269 18.5292C3.80119 18.9075 4.13832 19.1629 4.51079 19.1629ZM54.3728 14.0261C54.1419 13.7401 53.9155 13.4823 53.6966 13.2329C52.7028 12.1008 52.4058 11.6755 52.6936 10.969C52.7591 10.8086 52.8169 10.6366 52.8654 10.4581C52.984 10.0209 52.7259 9.57009 52.2887 9.45129C51.8518 9.33283 51.4006 9.59066 51.282 10.028C51.2509 10.1423 51.2147 10.2504 51.1743 10.3495C50.4794 12.055 51.488 13.2041 52.4635 14.3153C52.6714 14.5522 52.8866 14.7972 53.0963 15.0569C53.818 15.9504 54.298 17.4115 54.3615 18.1078C52.6643 17.6666 51.7168 16.8797 51.5432 15.7656L51.4978 15.4697C51.2978 14.155 51.091 12.7956 49.9385 12.5076C49.2145 12.3268 48.2806 12.5671 47.6671 13.0924C47.128 13.5542 46.8666 14.1987 46.931 14.907C46.951 15.1277 46.9807 15.3593 47.0121 15.6044C47.1218 16.4601 47.2875 17.753 46.8102 18.0795C45.6298 18.8872 45.5031 20.1433 45.3689 21.4732C45.3399 21.761 45.31 22.0585 45.2688 22.3664C45.1519 23.2443 45.467 23.7102 45.7521 23.9464C46.4703 24.5415 47.4999 24.2012 48.3271 23.9275C48.5112 23.8667 48.6849 23.8092 48.813 23.7771C49.1103 23.7028 49.5296 24.2276 50.131 25.43C50.3068 25.7818 50.5021 26.0835 50.6744 26.3497C51.2434 27.2289 51.6928 27.9232 51.1877 30.2937C50.9673 31.3274 50.6474 31.6655 50.5448 31.7207C50.4667 31.6699 50.3247 31.4363 50.4109 31.1562C50.7752 29.9725 50.7664 29.0541 50.3847 28.4266C50.1361 28.0179 49.7495 27.7556 49.2667 27.668C48.7792 27.5796 48.4722 27.647 48.1339 27.9168C48.0484 27.985 47.8211 28.1663 46.6753 28.3619C45.3891 28.5816 45.1403 28.3775 44.5387 27.8845C44.2654 27.6605 43.9253 27.3817 43.4535 27.1096C42.6542 26.6487 42.0745 26.7736 41.7286 26.9597C40.7158 27.5048 40.5731 29.0557 40.424 31.541C40.403 31.8908 40.3279 32.1348 40.2127 32.228C39.9516 32.4391 39.1203 32.3124 38.4521 32.2108C37.6592 32.0899 36.7604 31.9532 35.9398 32.1408C34.8235 32.396 34.0173 32.1056 33.3693 31.8721C32.9842 31.7334 32.6517 31.6137 32.2964 31.6137C31.4392 31.6137 31.2023 32.4462 31.1011 32.8017C31.0659 32.9255 31.0019 33.1504 30.9482 33.2222C30.9077 33.2284 30.7575 33.2381 30.4303 33.123C28.7702 32.5397 27.7785 33.1618 27.1223 33.5733C26.7687 33.7952 26.5576 33.9207 26.3322 33.9207C25.5933 33.9207 23.824 33.733 23.3543 31.995C22.8832 30.2522 21.5255 30.1196 20.7961 30.0483C20.7161 30.0405 20.6198 30.0311 20.5391 30.0201C20.2462 28.3124 18.4699 28.2296 16.2422 28.126C14.7709 28.0575 14.0932 28.4538 13.9022 29.494C13.8955 29.5299 13.8873 29.5751 13.8799 29.6065C13.8514 29.6209 13.7955 29.6444 13.6981 29.6687C12.6631 29.9273 11.5989 28.6193 11.4705 28.2225C11.2519 27.5469 10.4902 26.4837 7.84497 26.9562C6.37227 27.2191 6.27688 28.6585 6.22569 29.4318C6.21814 29.5455 6.2084 29.6928 6.19451 29.8146C5.19754 29.9014 4.73668 30.944 4.42503 31.6901C4.20494 30.9366 3.76377 29.9255 2.42179 29.1838C2.07546 28.9923 1.65836 28.6768 1.63834 28.2601C1.62762 28.0344 1.73056 27.841 1.80965 27.746C2.41435 27.7613 4.20286 27.7061 4.94802 26.5774C5.26065 26.1037 5.49322 25.2847 4.8254 24.0722C4.49176 23.4666 4.37931 22.8431 4.48159 22.1664C4.5493 21.7183 4.24093 21.3002 3.79298 21.2325C3.34525 21.1652 2.92695 21.4732 2.85924 21.9211C2.70325 22.9533 2.88122 23.9434 3.38824 24.8639C3.59466 25.2387 3.66587 25.5412 3.5788 25.6733C3.34777 26.0232 2.26033 26.1522 1.76906 26.1033C0.999513 26.0266 0.337709 26.775 0.105804 27.5185C-0.0351987 27.9708 -0.342144 29.531 1.62817 30.6199C2.60469 31.1596 2.77577 31.8376 2.94128 32.4932C3.07276 33.014 3.27141 33.8011 4.11469 33.9699C5.16549 34.18 5.61573 33.0988 5.91371 32.3834C6.03043 32.1035 6.24155 31.5969 6.39152 31.4545C6.83137 31.4813 7.12989 31.3138 7.30448 31.1653C7.78218 30.759 7.82506 30.1115 7.86291 29.5402C7.91607 28.7381 7.98619 28.5977 8.13343 28.5714C9.32183 28.3592 9.85346 28.5547 9.90936 28.7276C10.2731 29.8516 12.081 31.764 14.096 31.2604C15.3015 30.9592 15.4463 30.1695 15.516 29.79C15.5163 29.7884 15.5165 29.7867 15.5169 29.7851C15.62 29.767 15.8171 29.7487 16.1659 29.7649C17.2051 29.8132 18.1048 29.8659 18.5908 30.0219C18.9072 30.1234 18.9146 30.1977 18.9325 30.3773C19.0474 31.526 20.1207 31.6308 20.6366 31.6811C21.3184 31.7476 21.6019 31.7996 21.7703 32.4228C22.5574 35.3349 25.461 35.5613 26.3322 35.5613C27.0407 35.5613 27.5694 35.2296 27.9942 34.9631C28.5831 34.5937 28.972 34.3497 29.8863 34.671C30.6234 34.9298 31.2196 34.9326 31.7089 34.6793C32.3154 34.3652 32.5284 33.7674 32.6487 33.3571C32.7055 33.377 32.7619 33.3973 32.8132 33.4158C33.5726 33.6893 34.7202 34.1023 36.3054 33.7403C36.8222 33.6222 37.5252 33.7292 38.2052 33.8328C39.2944 33.9985 40.4204 34.1698 41.2442 33.5039C41.7363 33.106 42.0114 32.4786 42.0618 31.6392C42.1195 30.6758 42.224 28.9346 42.4872 28.4575C42.5233 28.4723 42.5716 28.4953 42.6334 28.5309C42.9889 28.736 43.248 28.9483 43.4986 29.1537C44.362 29.8612 45.0683 30.3007 46.9513 29.9795C48.172 29.7711 48.6837 29.5345 49.0008 29.3161C49.0512 29.4513 49.0917 29.8636 48.8425 30.6738C48.6059 31.4428 48.8037 32.2957 49.3469 32.8467C49.7954 33.3015 50.4085 33.4722 50.9882 33.3029C51.5893 33.1275 52.3901 32.5222 52.7921 30.6359C53.4387 27.6017 52.7335 26.5121 52.0515 25.4584C51.888 25.2056 51.7334 24.9668 51.5982 24.6964C51.0486 23.5971 50.1282 21.7576 48.4148 22.1855C48.2275 22.2323 48.0254 22.2992 47.8115 22.3698C47.5813 22.446 47.1579 22.586 46.8898 22.6258C46.8912 22.6124 46.8928 22.5983 46.8949 22.5833C46.9394 22.2494 46.9707 21.9385 47.0011 21.6378C47.1256 20.4039 47.2087 19.7947 47.7364 19.4337C49.0421 18.5403 48.8093 16.7229 48.6392 15.3958C48.6097 15.166 48.582 14.949 48.5645 14.7583C48.5483 14.5797 48.599 14.4541 48.7339 14.3385C48.9692 14.137 49.3324 14.0748 49.4979 14.0923C49.6617 14.3143 49.7893 15.1533 49.875 15.7163L49.9213 16.018C50.1281 17.3456 51.0704 19.0793 54.385 19.7997C54.9576 19.9245 55.4724 19.7186 55.7619 19.2495C56.5226 18.0177 55.2947 15.1674 54.3728 14.0261Z" fill="#2B2831"/>
</svg>
